<?xml version="1.0" encoding="UTF-8"?>
<svg xmlns="http://www.w3.org/2000/svg" xmlns:xlink="http://www.w3.org/1999/xlink" width="1920" height="1080" viewBox="0 0 1920 1080">
<defs>
<g>
<g id="glyph-0-0">
<path d="M 1.085938 -2.460938 L 0.964844 -2.886719 C 0.933594 -3 0.894531 -3.097656 0.839844 -3.171875 C 0.78125 -3.246094 0.699219 -3.285156 0.589844 -3.289062 C 0.457031 -3.285156 0.367188 -3.191406 0.320312 -3.003906 L 0.21875 -3.003906 L 0.21875 -3.101562 C 0.21875 -3.265625 0.253906 -3.398438 0.320312 -3.511719 C 0.386719 -3.613281 0.488281 -3.667969 0.621094 -3.667969 C 0.699219 -3.667969 0.769531 -3.648438 0.824219 -3.609375 C 0.878906 -3.566406 0.925781 -3.507812 0.964844 -3.429688 C 1.035156 -3.269531 1.097656 -3.066406 1.160156 -2.816406 L 1.679688 -0.949219 C 1.707031 -0.878906 1.730469 -0.808594 1.753906 -0.738281 C 1.773438 -0.667969 1.800781 -0.605469 1.832031 -0.550781 C 1.886719 -0.425781 1.972656 -0.363281 2.085938 -0.359375 C 2.15625 -0.363281 2.214844 -0.398438 2.261719 -0.464844 C 2.304688 -0.527344 2.324219 -0.597656 2.324219 -0.671875 L 2.425781 -0.671875 L 2.425781 -0.5 C 2.425781 -0.304688 2.390625 -0.164062 2.328125 -0.0820312 C 2.265625 0.00390625 2.179688 0.046875 2.074219 0.046875 C 1.9375 0.046875 1.835938 -0.0117188 1.769531 -0.125 C 1.699219 -0.234375 1.640625 -0.390625 1.59375 -0.585938 L 1.28125 -1.824219 L 1.269531 -1.824219 L 0.589844 0 L 0.132812 0 Z "/>
</g>
</g>
</defs>
<g fill="rgb(22.352941%, 100%, 7.843137%)" fill-opacity="1">
<use xlink:href="#glyph-0-0" x="30" y="23.75"/>
</g>
</svg>
